HIERARCHY
ROOT Hips
{
    OFFSET 0.000000 0.000000 0.000000
    CHANNELS 6 Xposition Yposition Zposition Zrotation Xrotation Yrotation
    JOINT Spine
    {
        OFFSET -0.000000 7.236184 0.000000
        CHANNELS 3 Zrotation Xrotation Yrotation
        JOINT Spine1
        {
            OFFSET -0.000000 20.420147 0.000000
            CHANNELS 3 Zrotation Xrotation Yrotation
            JOINT Neck
            {
                OFFSET -0.000000 20.336288 1.848754
                CHANNELS 3 Zrotation Xrotation Yrotation
                JOINT Head
                {
                    OFFSET -0.000000 12.354461 -1.764923
                    CHANNELS 3 Zrotation Xrotation Yrotation
                    End Site
                    {
                        OFFSET -0.000000 22.061537 0.000000
                    }
                }
            }
            JOINT LeftShoulder
            {
                OFFSET 3.573296 18.396038 -0.314103
                CHANNELS 3 Zrotation Xrotation Yrotation
                JOINT LeftArm
                {
                    OFFSET 10.880760 0.000000 0.000000
                    CHANNELS 3 Zrotation Xrotation Yrotation
                    JOINT LeftForeArm
                    {
                        OFFSET 27.185530 0.000000 0.000000
                        CHANNELS 3 Zrotation Xrotation Yrotation
                        JOINT LeftHand
                        {
                            OFFSET 27.825975 0.000000 0.000000
                            CHANNELS 3 Zrotation Xrotation Yrotation
                            End Site
                            {
                                OFFSET 13.236923 0.000000 0.000000
                            }
                        }
                    }
                }
            }
            JOINT RightShoulder
            {
                OFFSET -3.474926 18.396038 -0.314103
                CHANNELS 3 Zrotation Xrotation Yrotation
                JOINT RightArm
                {
                    OFFSET -10.880760 0.000000 0.000000
                    CHANNELS 3 Zrotation Xrotation Yrotation
                    JOINT RightForeArm
                    {
                        OFFSET -27.185530 0.000000 0.000000
                        CHANNELS 3 Zrotation Xrotation Yrotation
                        JOINT RightHand
                        {
                            OFFSET -27.825975 0.000000 0.000000
                            CHANNELS 3 Zrotation Xrotation Yrotation
                            End Site
                            {
                                OFFSET -13.236923 0.000000 0.000000
                            }
                        }
                    }
                }
            }
        }
    }
    JOINT LeftUpLeg
    {
        OFFSET 8.824615 0.000000 0.000000
        CHANNELS 3 Zrotation Xrotation Yrotation
        JOINT LeftLeg
        {
            OFFSET -0.000000 -35.111282 0.000000
            CHANNELS 3 Zrotation Xrotation Yrotation
            JOINT LeftFoot
            {
                OFFSET -0.000000 -42.324711 0.000000
                CHANNELS 3 Zrotation Xrotation Yrotation
                JOINT LeftToeBase
                {
                    OFFSET -0.000000 -5.735999 13.236923
                    CHANNELS 3 Zrotation Xrotation Yrotation
                    End Site
                    {
                        OFFSET -0.000000 0.000000 3.529846
                    }
                }
            }
        }
    }
    JOINT RightUpLeg
    {
        OFFSET -8.824615 0.000000 0.000000
        CHANNELS 3 Zrotation Xrotation Yrotation
        JOINT RightLeg
        {
            OFFSET -0.000000 -35.111282 0.000000
            CHANNELS 3 Zrotation Xrotation Yrotation
            JOINT RightFoot
            {
                OFFSET -0.000000 -42.324711 0.000000
                CHANNELS 3 Zrotation Xrotation Yrotation
                JOINT RightToeBase
                {
                    OFFSET -0.000000 -5.735999 13.236923
                    CHANNELS 3 Zrotation Xrotation Yrotation
                    End Site
                    {
                        OFFSET -0.000000 0.000000 3.529846
                    }
                }
            }
        }
    }
}
MOTION
Frames:    10
Frame Time:    0.008333
0.065050    80.972778    109.605453    3.104300    -9.323590    -179.375229    -0.800285    -10.823706    0.537110    5.248049    4.786325    0.393538    3.638090    10.174712    -5.457686    14.341148    -6.908519    -2.990669    0.023213    16.486036    2.097726    -53.326893    38.868515    -31.139849    1.136650    -7.641835    -14.654984    21.189674    -7.108455    2.093438    7.454206    19.471153    -10.274934    51.830059    33.694443    28.098206    -5.773076    -10.452743    19.747408    -23.358183    -8.803210    -3.227570    8.388338    -20.183931    -0.678533    0.188067    33.540108    5.054732    -7.007453    -17.433998    -12.486088    0.028863    -1.180859    -0.032063    -20.612122    -19.716837    -3.304576    4.171124    47.121349    3.693585    12.155943    -1.765037    -7.847806    0.606316    -9.500433    -0.665167    
-0.226231    81.001678    109.600235    3.186068    -9.178640    -179.347870    -0.765328    -10.710818    0.471900    5.290165    4.745123    0.324328    3.630183    10.253982    -5.462575    14.311380    -6.787590    -3.013458    0.047170    16.455246    2.107744    -53.291973    38.687965    -31.040445    1.126357    -7.900816    -14.617870    21.466999    -7.341099    2.216393    7.450593    19.474720    -10.271721    51.845020    33.662251    28.110891    -5.875157    -10.531665    19.795906    -23.482773    -8.851462    -3.263071    8.228047    -20.062103    -0.654956    0.262172    33.563976    4.998911    -6.904374    -17.461796    -12.488698    0.093163    -1.181039    -0.103491    -20.839926    -20.237795    -3.541446    4.125541    50.551529    4.084295    11.915961    -1.690238    -7.790702    0.611965    -9.735383    -0.671624    
-0.507418    81.025902    109.594193    3.271384    -9.031771    -179.309387    -0.730474    -10.603273    0.401173    5.330873    4.707395    0.249730    3.619365    10.335049    -5.464603    14.281253    -6.663333    -3.033440    0.066353    16.427042    2.118815    -53.276665    38.483124    -30.921135    1.117933    -8.143998    -14.575785    21.726545    -7.558241    2.335695    7.444464    19.473059    -10.272378    51.857803    33.623444    28.117184    -5.978548    -10.609066    19.873224    -23.590433    -8.898229    -3.291589    8.076705    -19.948889    -0.624523    0.348268    33.600769    4.918942    -6.822037    -17.488943    -12.498322    0.160837    -1.190466    -0.178669    -21.072512    -20.737619    -3.782549    4.056616    54.095184    4.497588    11.682006    -1.622761    -7.718089    0.615592    -9.922166    -0.675813    
-0.770823    81.044403    109.587440    3.358448    -8.888620    -179.263931    -0.696916    -10.506400    0.328950    5.370271    4.676404    0.173727    3.607177    10.415424    -5.464463    14.252271    -6.544392    -3.050197    0.080864    16.402506    2.128100    -53.278114    38.263424    -30.787876    1.111417    -8.364102    -14.533027    21.958611    -7.754303    2.443531    7.436463    19.465284    -10.277221    51.868885    33.575485    28.115376    -6.079110    -10.682063    19.976938    -23.674465    -8.941998    -3.311123    7.941221    -19.849031    -0.587849    0.439678    33.651073    4.821622    -6.760535    -17.515383    -12.514312    0.229445    -1.210803    -0.254894    -21.303406    -21.199722    -4.012679    3.969027    57.634777    4.925798    11.462688    -1.567124    -7.636455    0.616772    -10.059270    -0.677262    
-1.021614    81.057442    109.579895    3.448604    -8.747890    -179.214417    -0.664562    -10.419762    0.256524    5.410177    4.653173    0.097130    3.593717    10.494541    -5.463313    14.225307    -6.430739    -3.064790    0.091535    16.381685    2.133935    -53.291325    38.030346    -30.642958    1.106520    -8.565228    -14.491395    22.164263    -7.933880    2.538179    7.426444    19.451216    -10.286462    51.878899    33.514881    28.105688    -6.176513    -10.749565    20.105980    -23.735765    -8.981694    -3.322021    7.820602    -19.761183    -0.545020    0.533330    33.716583    4.713058    -6.716366    -17.541924    -12.537632    0.300044    -1.243526    -0.333343    -21.536615    -21.631060    -4.227784    3.864389    61.210365    5.375355    11.256427    -1.524235    -7.546934    0.615778    -10.151598    -0.676274    
-1.258683    81.064774    109.571548    3.540712    -8.611039    -179.164703    -0.633612    -10.344488    0.186322    5.449491    4.639105    0.022711    3.580397    10.571499    -5.461905    14.201460    -6.326365    -3.077418    0.099287    16.364698    2.134980    -53.312145    37.789619    -30.490694    1.103046    -8.745371    -14.452728    22.338713    -8.095956    2.615830    7.415301    19.430809    -10.299386    51.887058    33.441807    28.088751    -6.269196    -10.808552    20.256193    -23.775377    -9.014445    -3.325480    7.716247    -19.685871    -0.497004    0.624873    33.798084    4.602035    -6.688179    -17.569178    -12.569506    0.372488    -1.286440    -0.413859    -21.770815    -22.027424    -4.418601    3.746727    64.782196    5.839152    11.064025    -1.495862    -7.451987    0.612166    -10.200808    -0.672362    
-1.480339    81.066353    109.562454    3.632924    -8.479497    -179.118729    -0.604435    -10.281219    0.120880    5.486881    4.635234    -0.046676    3.567318    10.644590    -5.461159    14.183046    -6.233053    -3.088442    0.104905    16.351501    2.130376    -53.336750    37.547535    -30.336006    1.100727    -8.901893    -14.417776    22.477133    -8.238869    2.673059    7.403613    19.404882    -10.314970    51.892151    33.358131    28.066557    -6.355340    -10.855237    20.421106    -23.797066    -9.036453    -3.324065    7.628605    -19.622944    -0.445143    0.710849    33.895618    4.497715    -6.675149    -17.598148    -12.611082    0.446278    -1.336217    -0.495890    -22.003353    -22.383860    -4.575171    3.623773    68.296761    6.305517    10.882936    -1.483932    -7.358029    0.604562    -10.209103    -0.664019    
-1.692185    81.062248    109.552361    3.725974    -8.350004    -179.078583    -0.576523    -10.227604    0.060733    5.521657    4.641574    -0.111226    3.554854    10.714916    -5.461640    14.170508    -6.149191    -3.098555    0.109242    16.341158    2.119644    -53.362667    37.302246    -30.177746    1.099351    -9.037146    -14.385894    22.580053    -8.365128    2.709689    7.391815    19.373520    -10.332604    51.892059    33.266037    28.041149    -6.437086    -10.888877    20.598799    -23.805504    -9.045882    -3.320964    7.554216    -19.569555    -0.389188    0.791787    34.011497    4.403625    -6.675452    -17.630363    -12.663170    0.522533    -1.389963    -0.580679    -22.239193    -22.707066    -4.693286    3.501123    71.815804    6.777272    10.702443    -1.490657    -7.269885    0.591918    -10.176168    -0.650097    
-1.890685    81.052490    109.541389    3.816844    -8.224598    -179.047882    -0.550756    -10.183550    0.008584    5.552007    4.657867    -0.168390    3.543266    10.780497    -5.463868    14.164998    -6.075827    -3.108053    0.112663    16.333336    2.103142    -53.387535    37.060196    -30.021204    1.098131    -9.146305    -14.356108    22.643610    -8.470673    2.723309    7.380619    19.338253    -10.351151    51.883869    33.171413    28.015907    -6.512318    -10.908256    20.780596    -23.802917    -9.041945    -3.318153    7.492958    -19.525396    -0.331665    0.864826    34.143795    4.326391    -6.687717    -17.665901    -12.723627    0.599275    -1.443604    -0.666026    -22.473598    -22.989382    -4.764652    3.391355    75.258698    7.236998    10.518092    -1.517028    -7.195296    0.576043    -10.107828    -0.632589    
-2.074659    81.037483    109.529671    3.903138    -8.104116    -179.028992    -0.527862    -10.148104    -0.036994    5.576373    4.683479    -0.213965    3.532460    10.840562    -5.468125    14.167171    -6.012729    -3.117161    0.115578    16.327091    2.081643    -53.410156    36.825764    -29.869377    1.096509    -9.227389    -14.327018    22.667978    -8.553562    2.714466    7.370507    19.300335    -10.369346    51.865330    33.080780    27.993719    -6.580414    -10.915586    20.958330    -23.789558    -9.027422    -3.315669    7.442711    -19.488922    -0.275102    0.928793    34.289482    4.268404    -6.709076    -17.704340    -12.787888    0.675102    -1.494711    -0.750369    -22.703966    -23.228504    -4.787667    3.305440    78.576363    7.671448    10.326358    -1.561625    -7.138464    0.559648    -10.010702    -0.614485    
